<svg width="836" height="660" viewBox="0 0 836 660" fill="none" xmlns="http://www.w3.org/2000/svg">
<path d="M60.5 111L99 145L101.5 144V111.5L192.5 119H220L286 36V119H334.5L338 103L362.5 119H370L395.5 80V115L406 105L483 0V111.5L483.5 112L497 92V71L522.5 93L525 90.5L551.5 119H578.5L658 0V111.5H693.5L711.5 91.5L725 111.5H836L775 178.5L819 243H789L785 249L791.5 253.5L772 281L776.5 312.5H771V315H759.5L762 318.5H770.5V331.5L790.5 360.5H770.5V375L781.5 375.5L770.5 387V443H767.5V443C762.151 459.99 749.09 473.454 732.27 479.315L726 481.5V483H681.5L627.5 580.5V483H562.5L553 489L549.5 483H519L490.5 541.5L461.5 483H451.5L446 498L441 483H429V481L425.5 480L414 483V523H389V555L367.5 523H363V530.5H302.5L285.5 556V544L269.5 557.5L212.5 660V525L184.5 582L156.5 523H150L141 541.5L132 523H129.5L104 560.5V539.5L81.5 580V523H58V512H50V502L36 483V313.5L20.5 297.5L36 284V281H12.5L33 263.5L16.5 235.5L36 224V192L0 181L35.5 168L36 158.5H60.5V111Z" fill="#F9F9F9"/>
</svg>
