<svg width="42" height="42" viewBox="0 0 42 42" fill="none" xmlns="http://www.w3.org/2000/svg">
<path d="M11.6122 31.4082V25.0816L15.2857 21.4082H21H26.7143L30.3878 25.0816V31.4082M41 21C41 32.0457 32.0457 41 21 41C9.9543 41 1 32.0457 1 21C1 9.9543 9.9543 1 21 1C32.0457 1 41 9.9543 41 21ZM26.7143 15.4898C26.7143 18.7584 24.1559 21 21 21C17.8441 21 15.2857 18.7584 15.2857 15.4898C15.2857 12.2212 17.8441 9.57143 21 9.57143C24.1559 9.57143 26.7143 12.2212 26.7143 15.4898Z" stroke="#5EF5E3" stroke-width="2"/>
</svg>
