<svg width="42" height="42" viewBox="0 0 42 42" fill="none" xmlns="http://www.w3.org/2000/svg">
<path d="M18.6667 38.8571C9.66667 38.8571 7.66667 30.2857 7.66667 27.4286M18.6667 38.8571C18.6667 38.8571 18.6667 36.7143 20.6667 36.7143C22.6667 36.7143 22.6667 38.8571 22.6667 38.8571C22.6667 38.8571 22.6667 41 20.6667 41C18.6667 41 18.6667 38.8571 18.6667 38.8571ZM7.66667 27.4286C7.66667 25.1429 7.66667 21 7.66667 16.7143M7.66667 27.4286H4C3.33333 27.4286 1 27.0714 1 21.7143C1 17.0714 3.33333 16.7143 4 16.7143H7.66667M7.66667 16.7143C7.66667 8.14286 11 1 21.3333 1C31.6667 1 35 8.14286 35 16.7143M35 16.7143V27.4286H38.6667C39.3333 27.4286 41 27.0714 41 21.7143C41 17.0714 39.3333 16.7143 38.6667 16.7143H35Z" stroke="#5EF5E3" stroke-width="2" stroke-linecap="square"/>
</svg>
