<svg width="172" height="72" viewBox="0 0 172 72" fill="none" xmlns="http://www.w3.org/2000/svg">
<path d="M35 1V71M35 1L51 17.7894V45.2894L35 71M35 1H31L30.8 2.4433M35 71H22.2L22.4 69.5567M26.6 1H1V71H17.8M26.6 1L17.8 71M26.6 1L28.2 2.4433M17.8 71L19.8 69.5567M19.8 69.5567H22.4M19.8 69.5567L28.2 2.4433M22.4 69.5567L30.8 2.4433M28.2 2.4433H30.8M8.2 7.09375C8.2 7.65531 7.88366 7.65531 7 7.65531C6.11634 7.65531 5.8 7.6875 5.8 7.09375C5.8 6.5 6.11634 6.5 7 6.5C7.88366 6.5 8.2 6.5 8.2 7.09375Z" stroke="#5EF5E3" stroke-width="1.6"/>
<mask id="path-2-outside-1_481_623" maskUnits="userSpaceOnUse" x="4" y="22.1023" width="168" height="33" fill="black">
<rect fill="white" x="4" y="22.1023" width="168" height="33"/>
<path d="M7.9 52.1023C7.56667 52.1023 7.4 51.9357 7.4 51.6023V25.9423C7.4 25.609 7.56667 25.4423 7.9 25.4423H18.96C19.28 25.4423 19.5467 25.549 19.76 25.7623L23.76 29.7623C23.9867 29.989 24.1 30.2557 24.1 30.5623V37.4623C24.1 37.7823 23.9867 38.049 23.76 38.2623L19.76 42.2623C19.5467 42.489 19.28 42.6023 18.96 42.6023H14.06V51.6023C14.06 51.9357 13.8933 52.1023 13.56 52.1023H7.9ZM15.56 37.1623C16.6667 37.1623 17.42 36.9423 17.82 36.5023C18.2333 36.0623 18.44 35.229 18.44 34.0023C18.44 32.7757 18.2333 31.9423 17.82 31.5023C17.42 31.0623 16.6667 30.8423 15.56 30.8423C14.4667 30.8423 13.7133 31.0623 13.3 31.5023C12.9 31.9423 12.7 32.7757 12.7 34.0023C12.7 35.229 12.9 36.0623 13.3 36.5023C13.7133 36.9423 14.4667 37.1623 15.56 37.1623ZM34.8819 52.1023C34.5752 52.1023 34.3085 52.0157 34.0819 51.8423L30.8219 48.8623L27.5219 44.5623C27.3752 44.3757 27.2819 44.2623 27.2419 44.2223C27.2019 44.169 27.1819 44.049 27.1819 43.8623V33.6623C27.1819 33.4757 27.2019 33.3557 27.2419 33.3023C27.2952 33.249 27.3885 33.1357 27.5219 32.9623L30.5819 29.0023L34.0819 25.7023C34.2285 25.5823 34.3419 25.509 34.4219 25.4823C34.5152 25.4557 34.6685 25.4423 34.8819 25.4423H39.8219C40.1552 25.4423 40.3219 25.609 40.3219 25.9423V29.1423C40.3219 29.249 40.3085 29.3623 40.2819 29.4823C40.2685 29.589 40.2019 29.6823 40.0819 29.7623L36.3219 32.3423L33.8619 35.5023V42.0423L36.3619 45.2023L40.0819 47.7623C40.1885 47.829 40.2552 47.909 40.2819 48.0023C40.3085 48.0957 40.3219 48.1957 40.3219 48.3023V51.6023C40.3219 51.9357 40.1552 52.1023 39.8219 52.1023H34.8819ZM51.1641 52.1023C50.8307 52.1023 50.6641 51.9357 50.6641 51.6023V25.9423C50.6641 25.609 50.8307 25.4423 51.1641 25.4423H63.2041C63.5107 25.4423 63.7774 25.549 64.0041 25.7623L68.0041 29.7623C68.2174 29.989 68.3241 30.2557 68.3241 30.5623V34.7623C68.3241 34.8957 68.2974 35.0023 68.2441 35.0823C68.1907 35.1623 68.1107 35.2557 68.0041 35.3623L64.8641 38.1623L64.5641 38.9023L64.8641 39.4423L68.0041 42.2423C68.1107 42.349 68.1907 42.4423 68.2441 42.5223C68.2974 42.589 68.3241 42.6957 68.3241 42.8423V46.9623C68.3241 47.2823 68.2174 47.549 68.0041 47.7623L64.0041 51.7623C63.7774 51.989 63.5107 52.1023 63.2041 52.1023H51.1641ZM59.1241 47.6023C60.2307 47.6023 60.9841 47.3823 61.3841 46.9423C61.7974 46.5023 62.0041 45.669 62.0041 44.4423C62.0041 43.2023 61.7974 42.3623 61.3841 41.9223C60.9841 41.4823 60.2307 41.2623 59.1241 41.2623C58.0307 41.2623 57.2774 41.4823 56.8641 41.9223C56.4641 42.3623 56.2641 43.2023 56.2641 44.4423C56.2641 45.669 56.4641 46.5023 56.8641 46.9423C57.2774 47.3823 58.0307 47.6023 59.1241 47.6023ZM59.1241 36.2623C60.2307 36.2623 60.9841 36.0423 61.3841 35.6023C61.7974 35.1623 62.0041 34.329 62.0041 33.1023C62.0041 31.8757 61.7974 31.0423 61.3841 30.6023C60.9841 30.1623 60.2307 29.9423 59.1241 29.9423C58.0307 29.9423 57.2774 30.1623 56.8641 30.6023C56.4641 31.0423 56.2641 31.8757 56.2641 33.1023C56.2641 34.329 56.4641 35.1623 56.8641 35.6023C57.2774 36.0423 58.0307 36.2623 59.1241 36.2623ZM78.3603 52.1023C78.0403 52.1023 77.7736 51.989 77.5603 51.7623L73.5603 47.7623C73.3336 47.549 73.2203 47.2823 73.2203 46.9623V30.6023C73.2203 30.269 73.387 30.1023 73.7203 30.1023H79.0603C79.3936 30.1023 79.5603 30.269 79.5603 30.6023V46.1623C79.5603 46.789 79.867 47.1023 80.4803 47.1023H83.2203V30.6023C83.2203 30.269 83.387 30.1023 83.7203 30.1023H89.0603C89.3936 30.1023 89.5603 30.269 89.5603 30.6023V51.6023C89.5603 51.9357 89.3936 52.1023 89.0603 52.1023H78.3603ZM94.7359 52.1023C94.4026 52.1023 94.2359 51.9357 94.2359 51.6023V30.6023C94.2359 30.269 94.4026 30.1023 94.7359 30.1023H100.056C100.389 30.1023 100.556 30.269 100.556 30.6023V51.6023C100.556 51.9357 100.389 52.1023 100.056 52.1023H94.7359ZM94.6359 28.4423C94.3693 28.4423 94.2359 28.309 94.2359 28.0423V25.5023C94.2359 25.2357 94.3693 25.1023 94.6359 25.1023H100.196C100.436 25.1023 100.556 25.2357 100.556 25.5023V28.0423C100.556 28.309 100.436 28.4423 100.196 28.4423H94.6359ZM105.473 52.1023C105.139 52.1023 104.973 51.9357 104.973 51.6023V25.9423C104.973 25.609 105.139 25.4423 105.473 25.4423H110.813C111.146 25.4423 111.313 25.609 111.313 25.9423V51.6023C111.313 51.9357 111.146 52.1023 110.813 52.1023H105.473ZM120.72 52.1023C120.414 52.1023 120.147 51.989 119.92 51.7623L115.92 47.7623C115.694 47.549 115.58 47.2823 115.58 46.9623V35.2423C115.58 34.9223 115.694 34.6557 115.92 34.4423L119.92 30.4423C120.147 30.2157 120.414 30.1023 120.72 30.1023H123.78C124.1 30.1023 124.367 30.2157 124.58 30.4423L125.58 31.4423V25.9423C125.58 25.609 125.747 25.4423 126.08 25.4423H131.42C131.754 25.4423 131.92 25.609 131.92 25.9423V51.6023C131.92 51.9357 131.754 52.1023 131.42 52.1023H127.26C127.087 52.1023 126.954 52.069 126.86 52.0023C126.78 51.9357 126.687 51.8557 126.58 51.7623L125.58 50.7623L124.58 51.7623C124.367 51.989 124.1 52.1023 123.78 52.1023H120.72ZM123.06 47.4423H124.46C124.887 47.4423 125.18 47.3557 125.34 47.1823C125.5 47.009 125.58 46.7023 125.58 46.2623V34.7623H123.06C122.62 34.7623 122.32 34.849 122.16 35.0223C122 35.1957 121.92 35.5023 121.92 35.9423V46.2623C121.92 46.7023 122 47.009 122.16 47.1823C122.32 47.3557 122.62 47.4423 123.06 47.4423ZM145.54 52.1023C145.406 52.1023 145.26 52.0823 145.1 52.0423C144.953 52.0023 144.813 51.969 144.68 51.9423L141.12 51.0623L137.04 49.7023C136.64 49.569 136.44 49.1823 136.44 48.5423V35.2423C136.44 34.9223 136.553 34.6557 136.78 34.4423L140.78 30.4423C141.006 30.2157 141.273 30.1023 141.58 30.1023H147.98C148.286 30.1023 148.553 30.2157 148.78 30.4423L152.78 34.4423C153.006 34.6557 153.12 34.9223 153.12 35.2423V43.4423H142.38L142.24 46.1023L145.08 47.0423L150.18 47.4023C150.406 47.4423 150.52 47.5957 150.52 47.8623V51.6023C150.52 51.9357 150.353 52.1023 150.02 52.1023H145.54ZM144.74 40.3023H145.12C145.773 40.3023 146.293 40.0557 146.68 39.5623C147.08 39.069 147.28 38.4023 147.28 37.5623V37.1623C147.28 36.3357 147.08 35.6757 146.68 35.1823C146.293 34.689 145.773 34.4423 145.12 34.4423H144.72C144.08 34.4423 143.566 34.689 143.18 35.1823C142.806 35.6757 142.62 36.3357 142.62 37.1623V37.5623C142.62 38.4023 142.806 39.069 143.18 39.5623C143.566 40.0557 144.086 40.3023 144.74 40.3023ZM157.783 52.1023C157.449 52.1023 157.283 51.9357 157.283 51.6023V30.6023C157.283 30.269 157.449 30.1023 157.783 30.1023H160.823C161.076 30.1023 161.296 30.2157 161.483 30.4423L163.443 32.7023L165.623 30.3423C165.769 30.1823 165.956 30.1023 166.183 30.1023H168.343C168.676 30.1023 168.843 30.269 168.843 30.6023V34.9023C168.843 35.1157 168.829 35.2623 168.803 35.3423C168.776 35.409 168.703 35.4823 168.583 35.5623L163.623 39.2223V51.6023C163.623 51.9357 163.456 52.1023 163.123 52.1023H157.783Z"/>
</mask>
<path d="M7.9 52.1023C7.56667 52.1023 7.4 51.9357 7.4 51.6023V25.9423C7.4 25.609 7.56667 25.4423 7.9 25.4423H18.96C19.28 25.4423 19.5467 25.549 19.76 25.7623L23.76 29.7623C23.9867 29.989 24.1 30.2557 24.1 30.5623V37.4623C24.1 37.7823 23.9867 38.049 23.76 38.2623L19.76 42.2623C19.5467 42.489 19.28 42.6023 18.96 42.6023H14.06V51.6023C14.06 51.9357 13.8933 52.1023 13.56 52.1023H7.9ZM15.56 37.1623C16.6667 37.1623 17.42 36.9423 17.82 36.5023C18.2333 36.0623 18.44 35.229 18.44 34.0023C18.44 32.7757 18.2333 31.9423 17.82 31.5023C17.42 31.0623 16.6667 30.8423 15.56 30.8423C14.4667 30.8423 13.7133 31.0623 13.3 31.5023C12.9 31.9423 12.7 32.7757 12.7 34.0023C12.7 35.229 12.9 36.0623 13.3 36.5023C13.7133 36.9423 14.4667 37.1623 15.56 37.1623ZM34.8819 52.1023C34.5752 52.1023 34.3085 52.0157 34.0819 51.8423L30.8219 48.8623L27.5219 44.5623C27.3752 44.3757 27.2819 44.2623 27.2419 44.2223C27.2019 44.169 27.1819 44.049 27.1819 43.8623V33.6623C27.1819 33.4757 27.2019 33.3557 27.2419 33.3023C27.2952 33.249 27.3885 33.1357 27.5219 32.9623L30.5819 29.0023L34.0819 25.7023C34.2285 25.5823 34.3419 25.509 34.4219 25.4823C34.5152 25.4557 34.6685 25.4423 34.8819 25.4423H39.8219C40.1552 25.4423 40.3219 25.609 40.3219 25.9423V29.1423C40.3219 29.249 40.3085 29.3623 40.2819 29.4823C40.2685 29.589 40.2019 29.6823 40.0819 29.7623L36.3219 32.3423L33.8619 35.5023V42.0423L36.3619 45.2023L40.0819 47.7623C40.1885 47.829 40.2552 47.909 40.2819 48.0023C40.3085 48.0957 40.3219 48.1957 40.3219 48.3023V51.6023C40.3219 51.9357 40.1552 52.1023 39.8219 52.1023H34.8819ZM51.1641 52.1023C50.8307 52.1023 50.6641 51.9357 50.6641 51.6023V25.9423C50.6641 25.609 50.8307 25.4423 51.1641 25.4423H63.2041C63.5107 25.4423 63.7774 25.549 64.0041 25.7623L68.0041 29.7623C68.2174 29.989 68.3241 30.2557 68.3241 30.5623V34.7623C68.3241 34.8957 68.2974 35.0023 68.2441 35.0823C68.1907 35.1623 68.1107 35.2557 68.0041 35.3623L64.8641 38.1623L64.5641 38.9023L64.8641 39.4423L68.0041 42.2423C68.1107 42.349 68.1907 42.4423 68.2441 42.5223C68.2974 42.589 68.3241 42.6957 68.3241 42.8423V46.9623C68.3241 47.2823 68.2174 47.549 68.0041 47.7623L64.0041 51.7623C63.7774 51.989 63.5107 52.1023 63.2041 52.1023H51.1641ZM59.1241 47.6023C60.2307 47.6023 60.9841 47.3823 61.3841 46.9423C61.7974 46.5023 62.0041 45.669 62.0041 44.4423C62.0041 43.2023 61.7974 42.3623 61.3841 41.9223C60.9841 41.4823 60.2307 41.2623 59.1241 41.2623C58.0307 41.2623 57.2774 41.4823 56.8641 41.9223C56.4641 42.3623 56.2641 43.2023 56.2641 44.4423C56.2641 45.669 56.4641 46.5023 56.8641 46.9423C57.2774 47.3823 58.0307 47.6023 59.1241 47.6023ZM59.1241 36.2623C60.2307 36.2623 60.9841 36.0423 61.3841 35.6023C61.7974 35.1623 62.0041 34.329 62.0041 33.1023C62.0041 31.8757 61.7974 31.0423 61.3841 30.6023C60.9841 30.1623 60.2307 29.9423 59.1241 29.9423C58.0307 29.9423 57.2774 30.1623 56.8641 30.6023C56.4641 31.0423 56.2641 31.8757 56.2641 33.1023C56.2641 34.329 56.4641 35.1623 56.8641 35.6023C57.2774 36.0423 58.0307 36.2623 59.1241 36.2623ZM78.3603 52.1023C78.0403 52.1023 77.7736 51.989 77.5603 51.7623L73.5603 47.7623C73.3336 47.549 73.2203 47.2823 73.2203 46.9623V30.6023C73.2203 30.269 73.387 30.1023 73.7203 30.1023H79.0603C79.3936 30.1023 79.5603 30.269 79.5603 30.6023V46.1623C79.5603 46.789 79.867 47.1023 80.4803 47.1023H83.2203V30.6023C83.2203 30.269 83.387 30.1023 83.7203 30.1023H89.0603C89.3936 30.1023 89.5603 30.269 89.5603 30.6023V51.6023C89.5603 51.9357 89.3936 52.1023 89.0603 52.1023H78.3603ZM94.7359 52.1023C94.4026 52.1023 94.2359 51.9357 94.2359 51.6023V30.6023C94.2359 30.269 94.4026 30.1023 94.7359 30.1023H100.056C100.389 30.1023 100.556 30.269 100.556 30.6023V51.6023C100.556 51.9357 100.389 52.1023 100.056 52.1023H94.7359ZM94.6359 28.4423C94.3693 28.4423 94.2359 28.309 94.2359 28.0423V25.5023C94.2359 25.2357 94.3693 25.1023 94.6359 25.1023H100.196C100.436 25.1023 100.556 25.2357 100.556 25.5023V28.0423C100.556 28.309 100.436 28.4423 100.196 28.4423H94.6359ZM105.473 52.1023C105.139 52.1023 104.973 51.9357 104.973 51.6023V25.9423C104.973 25.609 105.139 25.4423 105.473 25.4423H110.813C111.146 25.4423 111.313 25.609 111.313 25.9423V51.6023C111.313 51.9357 111.146 52.1023 110.813 52.1023H105.473ZM120.72 52.1023C120.414 52.1023 120.147 51.989 119.92 51.7623L115.92 47.7623C115.694 47.549 115.58 47.2823 115.58 46.9623V35.2423C115.58 34.9223 115.694 34.6557 115.92 34.4423L119.92 30.4423C120.147 30.2157 120.414 30.1023 120.72 30.1023H123.78C124.1 30.1023 124.367 30.2157 124.58 30.4423L125.58 31.4423V25.9423C125.58 25.609 125.747 25.4423 126.08 25.4423H131.42C131.754 25.4423 131.92 25.609 131.92 25.9423V51.6023C131.92 51.9357 131.754 52.1023 131.42 52.1023H127.26C127.087 52.1023 126.954 52.069 126.86 52.0023C126.78 51.9357 126.687 51.8557 126.58 51.7623L125.58 50.7623L124.58 51.7623C124.367 51.989 124.1 52.1023 123.78 52.1023H120.72ZM123.06 47.4423H124.46C124.887 47.4423 125.18 47.3557 125.34 47.1823C125.5 47.009 125.58 46.7023 125.58 46.2623V34.7623H123.06C122.62 34.7623 122.32 34.849 122.16 35.0223C122 35.1957 121.92 35.5023 121.92 35.9423V46.2623C121.92 46.7023 122 47.009 122.16 47.1823C122.32 47.3557 122.62 47.4423 123.06 47.4423ZM145.54 52.1023C145.406 52.1023 145.26 52.0823 145.1 52.0423C144.953 52.0023 144.813 51.969 144.68 51.9423L141.12 51.0623L137.04 49.7023C136.64 49.569 136.44 49.1823 136.44 48.5423V35.2423C136.44 34.9223 136.553 34.6557 136.78 34.4423L140.78 30.4423C141.006 30.2157 141.273 30.1023 141.58 30.1023H147.98C148.286 30.1023 148.553 30.2157 148.78 30.4423L152.78 34.4423C153.006 34.6557 153.12 34.9223 153.12 35.2423V43.4423H142.38L142.24 46.1023L145.08 47.0423L150.18 47.4023C150.406 47.4423 150.52 47.5957 150.52 47.8623V51.6023C150.52 51.9357 150.353 52.1023 150.02 52.1023H145.54ZM144.74 40.3023H145.12C145.773 40.3023 146.293 40.0557 146.68 39.5623C147.08 39.069 147.28 38.4023 147.28 37.5623V37.1623C147.28 36.3357 147.08 35.6757 146.68 35.1823C146.293 34.689 145.773 34.4423 145.12 34.4423H144.72C144.08 34.4423 143.566 34.689 143.18 35.1823C142.806 35.6757 142.62 36.3357 142.62 37.1623V37.5623C142.62 38.4023 142.806 39.069 143.18 39.5623C143.566 40.0557 144.086 40.3023 144.74 40.3023ZM157.783 52.1023C157.449 52.1023 157.283 51.9357 157.283 51.6023V30.6023C157.283 30.269 157.449 30.1023 157.783 30.1023H160.823C161.076 30.1023 161.296 30.2157 161.483 30.4423L163.443 32.7023L165.623 30.3423C165.769 30.1823 165.956 30.1023 166.183 30.1023H168.343C168.676 30.1023 168.843 30.269 168.843 30.6023V34.9023C168.843 35.1157 168.829 35.2623 168.803 35.3423C168.776 35.409 168.703 35.4823 168.583 35.5623L163.623 39.2223V51.6023C163.623 51.9357 163.456 52.1023 163.123 52.1023H157.783Z" fill="#5EF5E3"/>
<path d="M19.76 25.7623L17.6387 27.8836L17.6387 27.8836L19.76 25.7623ZM23.76 29.7623L25.8813 27.641L25.8813 27.641L23.76 29.7623ZM23.76 38.2623L21.7039 36.0777L21.6708 36.1089L21.6387 36.141L23.76 38.2623ZM19.76 42.2623L17.6387 40.141L17.6065 40.1731L17.5754 40.2062L19.76 42.2623ZM14.06 42.6023V39.6023H11.06V42.6023H14.06ZM17.82 36.5023L15.6335 34.4483L15.6167 34.4662L15.6002 34.4843L17.82 36.5023ZM17.82 31.5023L15.6002 33.5203L15.6167 33.5385L15.6335 33.5563L17.82 31.5023ZM13.3 31.5023L11.1135 29.4483L11.0967 29.4662L11.0802 29.4843L13.3 31.5023ZM13.3 36.5023L11.0802 38.5203L11.0967 38.5385L11.1135 38.5564L13.3 36.5023ZM7.9 49.1023C8.19577 49.1023 8.96861 49.1783 9.64632 49.856C10.324 50.5337 10.4 51.3066 10.4 51.6023H4.4C4.4 52.2314 4.55931 53.2543 5.40368 54.0986C6.24805 54.943 7.2709 55.1023 7.9 55.1023V49.1023ZM10.4 51.6023V25.9423H4.4V51.6023H10.4ZM10.4 25.9423C10.4 26.2381 10.324 27.0109 9.64632 27.6886C8.96861 28.3664 8.19577 28.4423 7.9 28.4423V22.4423C7.2709 22.4423 6.24805 22.6016 5.40368 23.446C4.55931 24.2904 4.4 25.3132 4.4 25.9423H10.4ZM7.9 28.4423H18.96V22.4423H7.9V28.4423ZM18.96 28.4423C18.7818 28.4423 18.5451 28.4115 18.2858 28.3078C18.023 28.2026 17.8045 28.0495 17.6387 27.8836L21.8813 23.641C21.0686 22.8283 20.0221 22.4423 18.96 22.4423V28.4423ZM17.6387 27.8836L21.6387 31.8836L25.8813 27.641L21.8813 23.641L17.6387 27.8836ZM21.6387 31.8836C21.5089 31.7539 21.363 31.5623 21.254 31.3057C21.1439 31.0466 21.1 30.7883 21.1 30.5623H27.1C27.1 29.4207 26.6422 28.4019 25.8813 27.641L21.6387 31.8836ZM21.1 30.5623V37.4623H27.1V30.5623H21.1ZM21.1 37.4623C21.1 37.2614 21.1372 37.0037 21.254 36.7289C21.3716 36.4523 21.5376 36.2343 21.7039 36.0777L25.8161 40.4469C26.664 39.6489 27.1 38.5833 27.1 37.4623H21.1ZM21.6387 36.141L17.6387 40.141L21.8813 44.3836L25.8813 40.3836L21.6387 36.141ZM17.5754 40.2062C17.7319 40.0399 17.9499 39.8739 18.2266 39.7563C18.5014 39.6395 18.759 39.6023 18.96 39.6023V45.6023C20.081 45.6023 21.1466 45.1663 21.9446 44.3184L17.5754 40.2062ZM18.96 39.6023H14.06V45.6023H18.96V39.6023ZM11.06 42.6023V51.6023H17.06V42.6023H11.06ZM11.06 51.6023C11.06 51.3066 11.136 50.5337 11.8137 49.856C12.4914 49.1783 13.2642 49.1023 13.56 49.1023V55.1023C14.1891 55.1023 15.2119 54.943 16.0563 54.0986C16.9007 53.2543 17.06 52.2314 17.06 51.6023H11.06ZM13.56 49.1023H7.9V55.1023H13.56V49.1023ZM15.56 40.1623C16.8482 40.1623 18.7411 39.9489 20.0398 38.5203L15.6002 34.4843C15.7345 34.3366 15.8671 34.2426 15.9637 34.1873C16.0112 34.1601 16.0493 34.1426 16.0745 34.1322C16.0997 34.1218 16.1137 34.1177 16.114 34.1176C16.1143 34.1175 16.1032 34.1208 16.0788 34.1255C16.0544 34.1303 16.0191 34.1362 15.9714 34.1418C15.8745 34.1533 15.7394 34.1623 15.56 34.1623V40.1623ZM20.0065 38.5564C21.2693 37.2122 21.44 35.3201 21.44 34.0023H15.44C15.44 34.2267 15.4305 34.4073 15.4162 34.5491C15.4019 34.6921 15.3843 34.7806 15.3732 34.8252C15.3619 34.8709 15.3625 34.8499 15.394 34.7853C15.4263 34.7189 15.4982 34.5923 15.6335 34.4483L20.0065 38.5564ZM21.44 34.0023C21.44 32.6845 21.2693 30.7925 20.0065 29.4483L15.6335 33.5563C15.4982 33.4123 15.4263 33.2857 15.394 33.2194C15.3625 33.1547 15.3619 33.1337 15.3732 33.1794C15.3843 33.224 15.4019 33.3126 15.4162 33.4555C15.4305 33.5974 15.44 33.778 15.44 34.0023H21.44ZM20.0398 29.4843C18.7411 28.0558 16.8482 27.8423 15.56 27.8423V33.8423C15.7394 33.8423 15.8745 33.8514 15.9714 33.8628C16.0191 33.8684 16.0544 33.8743 16.0788 33.8791C16.1032 33.8839 16.1143 33.8871 16.114 33.887C16.1137 33.8869 16.0997 33.8828 16.0745 33.8724C16.0493 33.862 16.0112 33.8445 15.9637 33.8174C15.8671 33.7621 15.7345 33.6681 15.6002 33.5203L20.0398 29.4843ZM15.56 27.8423C14.2559 27.8423 12.4103 28.0678 11.1135 29.4483L15.4865 33.5563C15.2321 33.8272 15.0028 33.8909 15.016 33.887C15.0194 33.886 15.0631 33.8739 15.1586 33.8625C15.2534 33.8512 15.3853 33.8423 15.56 33.8423V27.8423ZM11.0802 29.4843C9.86084 30.8256 9.7 32.6981 9.7 34.0023H15.7C15.7 33.5328 15.7402 33.2699 15.7672 33.1574C15.7793 33.1071 15.7801 33.1237 15.7513 33.1848C15.7219 33.2472 15.6531 33.3737 15.5198 33.5203L11.0802 29.4843ZM9.7 34.0023C9.7 35.3066 9.86084 37.1791 11.0802 38.5203L15.5198 34.4843C15.6531 34.6309 15.7219 34.7574 15.7513 34.8198C15.7801 34.881 15.7793 34.8976 15.7672 34.8472C15.7402 34.7348 15.7 34.4719 15.7 34.0023H9.7ZM11.1135 38.5564C12.4103 39.9369 14.2559 40.1623 15.56 40.1623V34.1623C15.3853 34.1623 15.2534 34.1534 15.1586 34.1421C15.0631 34.1308 15.0194 34.1186 15.016 34.1176C15.0028 34.1138 15.2321 34.1774 15.4865 34.4483L11.1135 38.5564ZM34.0819 51.8423L32.0578 54.0566L32.1549 54.1454L32.2595 54.2254L34.0819 51.8423ZM30.8219 48.8623L28.4419 50.6888L28.6028 50.8984L28.7978 51.0766L30.8219 48.8623ZM27.5219 44.5623L29.9018 42.7359L29.8914 42.7223L29.8808 42.7089L27.5219 44.5623ZM27.2419 44.2223L24.8419 46.0223L24.9698 46.1929L25.1206 46.3436L27.2419 44.2223ZM27.2419 33.3023L25.1206 31.181L24.9698 31.3318L24.8419 31.5023L27.2419 33.3023ZM27.5219 32.9623L25.148 31.128L25.144 31.1332L27.5219 32.9623ZM30.5819 29.0023L28.5238 26.8196L28.3522 26.9814L28.208 27.168L30.5819 29.0023ZM34.0819 25.7023L32.1822 23.3805L32.1006 23.4472L32.0238 23.5196L34.0819 25.7023ZM34.4219 25.4823L33.5977 22.5977L33.535 22.6157L33.4732 22.6363L34.4219 25.4823ZM40.2819 29.4823L37.3533 28.8315L37.3226 28.9697L37.305 29.1102L40.2819 29.4823ZM40.0819 29.7623L38.4178 27.2662L38.4011 27.2773L38.3845 27.2887L40.0819 29.7623ZM36.3219 32.3423L34.6245 29.8687L34.2406 30.1321L33.9546 30.4995L36.3219 32.3423ZM33.8619 35.5023L31.4946 33.6595L30.8619 34.4723V35.5023H33.8619ZM33.8619 42.0423H30.8619V43.0855L31.5091 43.9037L33.8619 42.0423ZM36.3619 45.2023L34.0091 47.0637L34.2892 47.4177L34.6612 47.6737L36.3619 45.2023ZM40.0819 47.7623L38.3812 50.2337L38.4357 50.2712L38.4919 50.3063L40.0819 47.7623ZM40.2819 48.0023L37.3973 48.8265L37.3973 48.8265L40.2819 48.0023ZM34.8819 49.1023C35.0141 49.1023 35.1863 49.1216 35.3791 49.1842C35.5744 49.2477 35.7528 49.3434 35.9042 49.4593L32.2595 54.2254C33.0496 54.8296 33.9689 55.1023 34.8819 55.1023V49.1023ZM36.106 49.628L32.846 46.648L28.7978 51.0766L32.0578 54.0566L36.106 49.628ZM33.2018 47.0359L29.9018 42.7359L25.1419 46.3888L28.4419 50.6888L33.2018 47.0359ZM29.8808 42.7089C29.7793 42.5797 29.5598 42.2976 29.3632 42.101L25.1206 46.3436C25.1014 46.3245 25.0857 46.3082 25.0741 46.296C25.0623 46.2835 25.0525 46.273 25.0453 46.2651C25.0312 46.2497 25.0217 46.2388 25.0181 46.2346C25.0113 46.2268 25.013 46.2286 25.0261 46.2444C25.0382 46.2591 25.0556 46.2806 25.0793 46.3102C25.1027 46.3394 25.1305 46.3745 25.1629 46.4158L29.8808 42.7089ZM29.6419 42.4223C29.8737 42.7314 29.9917 43.0184 30.0506 43.1885C30.1125 43.3675 30.1418 43.5133 30.1561 43.5991C30.1711 43.6895 30.1769 43.7577 30.1793 43.7946C30.1818 43.8333 30.1819 43.8571 30.1819 43.8623H24.1819C24.1819 44.0435 24.1902 44.3007 24.2377 44.5855C24.2716 44.7891 24.3836 45.4113 24.8419 46.0223L29.6419 42.4223ZM30.1819 43.8623V33.6623H24.1819V43.8623H30.1819ZM30.1819 33.6623C30.1819 33.6675 30.1818 33.6914 30.1793 33.7301C30.1769 33.767 30.1711 33.8352 30.1561 33.9255C30.1418 34.0113 30.1125 34.1572 30.0506 34.3362C29.9917 34.5062 29.8737 34.7932 29.6419 35.1023L24.8419 31.5023C24.3836 32.1133 24.2716 32.7355 24.2377 32.9391C24.1902 33.2239 24.1819 33.4812 24.1819 33.6623H30.1819ZM29.3632 35.4236C29.5761 35.2108 29.7834 34.9427 29.8997 34.7915L25.144 31.1332C25.1173 31.1679 25.0948 31.1968 25.0761 31.2204C25.0573 31.2442 25.0442 31.2604 25.0361 31.2702C25.0274 31.2808 25.0284 31.2793 25.0372 31.2692C25.042 31.2638 25.0509 31.2537 25.0635 31.2402C25.0756 31.2271 25.095 31.2065 25.1206 31.181L29.3632 35.4236ZM29.8957 34.7967L32.9557 30.8367L28.208 27.168L25.148 31.128L29.8957 34.7967ZM32.6399 31.1851L36.1399 27.8851L32.0238 23.5196L28.5238 26.8196L32.6399 31.1851ZM35.9816 28.0242C36.0002 28.009 35.9724 28.0335 35.9066 28.076C35.872 28.0985 35.8134 28.1346 35.7339 28.1757C35.6573 28.2154 35.5335 28.2741 35.3705 28.3284L33.4732 22.6363C32.8271 22.8516 32.3468 23.2458 32.1822 23.3805L35.9816 28.0242ZM35.246 28.3669C35.1296 28.4002 35.0375 28.4174 34.9833 28.4261C34.9267 28.4353 34.886 28.4394 34.8668 28.441C34.8313 28.4441 34.8316 28.4423 34.8819 28.4423V22.4423C34.641 22.4423 34.1245 22.4473 33.5977 22.5977L35.246 28.3669ZM34.8819 28.4423H39.8219V22.4423H34.8819V28.4423ZM39.8219 28.4423C39.5261 28.4423 38.7533 28.3664 38.0756 27.6886C37.3978 27.0109 37.3219 26.2381 37.3219 25.9423H43.3219C43.3219 25.3132 43.1626 24.2904 42.3182 23.446C41.4738 22.6016 40.451 22.4423 39.8219 22.4423V28.4423ZM37.3219 25.9423V29.1423H43.3219V25.9423H37.3219ZM37.3219 29.1423C37.3219 28.9999 37.3395 28.8936 37.3533 28.8315L43.2104 30.1331C43.2776 29.8311 43.3219 29.4981 43.3219 29.1423H37.3219ZM37.305 29.1102C37.4336 28.0821 38.074 27.4954 38.4178 27.2662L41.746 32.2585C42.3298 31.8693 43.1035 31.0959 43.2587 29.8544L37.305 29.1102ZM38.3845 27.2887L34.6245 29.8687L38.0192 34.816L41.7792 32.236L38.3845 27.2887ZM33.9546 30.4995L31.4946 33.6595L36.2291 37.3452L38.6891 34.1852L33.9546 30.4995ZM30.8619 35.5023V42.0423H36.8619V35.5023H30.8619ZM31.5091 43.9037L34.0091 47.0637L38.7146 43.341L36.2146 40.181L31.5091 43.9037ZM34.6612 47.6737L38.3812 50.2337L41.7826 45.291L38.0626 42.731L34.6612 47.6737ZM38.4919 50.3063C38.1605 50.0992 37.629 49.6376 37.3973 48.8265L43.1664 47.1782C42.8814 46.1804 42.2166 45.5588 41.6719 45.2183L38.4919 50.3063ZM37.3973 48.8265C37.3402 48.6268 37.3219 48.4471 37.3219 48.3023H43.3219C43.3219 47.9442 43.2768 47.5645 43.1664 47.1781L37.3973 48.8265ZM37.3219 48.3023V51.6023H43.3219V48.3023H37.3219ZM37.3219 51.6023C37.3219 51.3066 37.3978 50.5337 38.0756 49.856C38.7533 49.1783 39.5261 49.1023 39.8219 49.1023V55.1023C40.451 55.1023 41.4738 54.943 42.3182 54.0986C43.1626 53.2543 43.3219 52.2314 43.3219 51.6023H37.3219ZM39.8219 49.1023H34.8819V55.1023H39.8219V49.1023ZM64.0041 25.7623L66.1254 23.641L66.0933 23.6089L66.0602 23.5777L64.0041 25.7623ZM68.0041 29.7623L70.1887 27.7062L70.1575 27.6731L70.1254 27.641L68.0041 29.7623ZM68.2441 35.0823L70.7402 36.7464L70.7402 36.7464L68.2441 35.0823ZM68.0041 35.3623L70.0007 37.6014L70.0647 37.5443L70.1254 37.4836L68.0041 35.3623ZM64.8641 38.1623L62.8674 35.9232L62.3462 36.388L62.0838 37.0352L64.8641 38.1623ZM64.5641 38.9023L61.7838 37.7752L61.2448 39.105L61.9416 40.3593L64.5641 38.9023ZM64.8641 39.4423L62.2416 40.8993L62.4883 41.3433L62.8674 41.6814L64.8641 39.4423ZM68.0041 42.2423L70.1254 40.121L70.0647 40.0603L70.0007 40.0032L68.0041 42.2423ZM68.2441 42.5223L65.7479 44.1864L65.8201 44.2948L65.9014 44.3964L68.2441 42.5223ZM68.0041 47.7623L70.1254 49.8836L70.1254 49.8836L68.0041 47.7623ZM64.0041 51.7623L66.1254 53.8836L66.1254 53.8836L64.0041 51.7623ZM61.3841 46.9423L59.1975 44.8883L59.1807 44.9062L59.1642 44.9243L61.3841 46.9423ZM61.3841 41.9223L59.1642 43.9403L59.1807 43.9585L59.1975 43.9764L61.3841 41.9223ZM56.8641 41.9223L54.6775 39.8683L54.6607 39.8862L54.6442 39.9043L56.8641 41.9223ZM56.8641 46.9423L54.6442 48.9603L54.6607 48.9785L54.6775 48.9964L56.8641 46.9423ZM61.3841 35.6023L59.1975 33.5483L59.1807 33.5662L59.1642 33.5843L61.3841 35.6023ZM61.3841 30.6023L59.1642 32.6203L59.1807 32.6385L59.1975 32.6564L61.3841 30.6023ZM56.8641 30.6023L54.6775 28.5483L54.6607 28.5662L54.6442 28.5843L56.8641 30.6023ZM56.8641 35.6023L54.6442 37.6203L54.6607 37.6385L54.6775 37.6564L56.8641 35.6023ZM51.1641 49.1023C51.4598 49.1023 52.2327 49.1783 52.9104 49.856C53.5881 50.5337 53.6641 51.3066 53.6641 51.6023H47.6641C47.6641 52.2314 47.8234 53.2543 48.6677 54.0986C49.5121 54.943 50.535 55.1023 51.1641 55.1023V49.1023ZM53.6641 51.6023V25.9423H47.6641V51.6023H53.6641ZM53.6641 25.9423C53.6641 26.2381 53.5881 27.0109 52.9104 27.6886C52.2327 28.3664 51.4598 28.4423 51.1641 28.4423V22.4423C50.535 22.4423 49.5121 22.6016 48.6677 23.446C47.8234 24.2904 47.6641 25.3132 47.6641 25.9423H53.6641ZM51.1641 28.4423H63.2041V22.4423H51.1641V28.4423ZM63.2041 28.4423C63.0019 28.4423 62.7644 28.4056 62.5199 28.3078C62.2762 28.2103 62.0852 28.0761 61.948 27.9469L66.0602 23.5777C65.2863 22.8494 64.2876 22.4423 63.2041 22.4423V28.4423ZM61.8827 27.8836L65.8827 31.8836L70.1254 27.641L66.1254 23.641L61.8827 27.8836ZM65.8195 31.8184C65.6903 31.6812 65.5561 31.4902 65.4586 31.2465C65.3608 31.002 65.3241 30.7645 65.3241 30.5623H71.3241C71.3241 29.4788 70.917 28.4801 70.1887 27.7062L65.8195 31.8184ZM65.3241 30.5623V34.7623H71.3241V30.5623H65.3241ZM65.3241 34.7623C65.3241 34.5248 65.3683 33.9876 65.7479 33.4182L70.7402 36.7464C71.2265 36.017 71.3241 35.2665 71.3241 34.7623H65.3241ZM65.7479 33.4182C65.8036 33.3347 65.8482 33.2811 65.8663 33.2599C65.8859 33.237 65.8934 33.2303 65.8827 33.241L70.1254 37.4836C70.3025 37.3065 70.5338 37.056 70.7402 36.7464L65.7479 33.4182ZM66.0074 33.1232L62.8674 35.9232L66.8607 40.4014L70.0007 37.6014L66.0074 33.1232ZM62.0838 37.0352L61.7838 37.7752L67.3443 40.0294L67.6443 39.2894L62.0838 37.0352ZM61.9416 40.3593L62.2416 40.8993L67.4865 37.9854L67.1865 37.4454L61.9416 40.3593ZM62.8674 41.6814L66.0074 44.4814L70.0007 40.0032L66.8607 37.2032L62.8674 41.6814ZM65.8827 44.3636C65.8934 44.3743 65.8859 44.3676 65.8663 44.3447C65.8482 44.3236 65.8036 44.2699 65.7479 44.1864L70.7402 40.8582C70.5338 40.5486 70.3025 40.2982 70.1254 40.121L65.8827 44.3636ZM65.9014 44.3964C65.5928 44.0106 65.456 43.6292 65.3936 43.3799C65.3315 43.1314 65.3241 42.9382 65.3241 42.8423H71.3241C71.3241 42.4571 71.2777 41.512 70.5867 40.6483L65.9014 44.3964ZM65.3241 42.8423V46.9623H71.3241V42.8423H65.3241ZM65.3241 46.9623C65.3241 46.7842 65.3549 46.5475 65.4586 46.2882C65.5638 46.0254 65.7169 45.8069 65.8827 45.641L70.1254 49.8836C70.9381 49.0709 71.3241 48.0244 71.3241 46.9623H65.3241ZM65.8827 45.641L61.8827 49.641L66.1254 53.8836L70.1254 49.8836L65.8827 45.641ZM61.8827 49.641C62.0125 49.5113 62.2041 49.3654 62.4606 49.2563C62.7198 49.1462 62.9781 49.1023 63.2041 49.1023V55.1023C64.3456 55.1023 65.3645 54.6445 66.1254 53.8836L61.8827 49.641ZM63.2041 49.1023H51.1641V55.1023H63.2041V49.1023ZM59.1241 50.6023C60.4123 50.6023 62.3052 50.3889 63.6039 48.9603L59.1642 44.9243C59.2985 44.7766 59.4311 44.6826 59.5278 44.6273C59.5752 44.6001 59.6133 44.5826 59.6386 44.5722C59.6637 44.5618 59.6778 44.5577 59.6781 44.5576C59.6784 44.5575 59.6673 44.5608 59.6429 44.5655C59.6185 44.5703 59.5831 44.5762 59.5354 44.5818C59.4386 44.5933 59.3035 44.6023 59.1241 44.6023V50.6023ZM63.5706 48.9964C64.8333 47.6522 65.0041 45.7601 65.0041 44.4423H59.0041C59.0041 44.6667 58.9945 44.8473 58.9803 44.9891C58.966 45.1321 58.9483 45.2206 58.9373 45.2652C58.9259 45.3109 58.9266 45.2899 58.9581 45.2253C58.9904 45.1589 59.0622 45.0323 59.1975 44.8883L63.5706 48.9964ZM65.0041 44.4423C65.0041 43.1218 64.8369 41.2163 63.5706 39.8683L59.1975 43.9764C59.0598 43.8297 58.9873 43.7011 58.9554 43.6351C58.9242 43.5707 58.9241 43.5509 58.9359 43.599C58.9475 43.646 58.9655 43.7375 58.98 43.8839C58.9945 44.0292 59.0041 44.2137 59.0041 44.4423H65.0041ZM63.6039 39.9043C62.3052 38.4758 60.4123 38.2623 59.1241 38.2623V44.2623C59.3035 44.2623 59.4386 44.2714 59.5354 44.2828C59.5831 44.2884 59.6185 44.2943 59.6429 44.2991C59.6673 44.3039 59.6784 44.3071 59.6781 44.307C59.6778 44.3069 59.6637 44.3028 59.6386 44.2924C59.6133 44.282 59.5752 44.2645 59.5278 44.2374C59.4311 44.1821 59.2985 44.0881 59.1642 43.9403L63.6039 39.9043ZM59.1241 38.2623C57.82 38.2623 55.9744 38.4878 54.6775 39.8683L59.0506 43.9763C58.7962 44.2472 58.5669 44.3109 58.58 44.307C58.5835 44.306 58.6272 44.2939 58.7227 44.2825C58.8174 44.2712 58.9493 44.2623 59.1241 44.2623V38.2623ZM54.6442 39.9043C53.9837 40.6309 53.6635 41.4826 53.4956 42.1875C53.3236 42.9101 53.2641 43.6805 53.2641 44.4423H59.2641C59.2641 43.9641 59.3045 43.6946 59.3325 43.5772C59.3451 43.5243 59.3465 43.5398 59.3179 43.6006C59.2889 43.6626 59.2196 43.7911 59.0839 43.9403L54.6442 39.9043ZM53.2641 44.4423C53.2641 45.7466 53.4249 47.6191 54.6442 48.9603L59.0839 44.9243C59.2172 45.0709 59.286 45.1974 59.3154 45.2598C59.3442 45.321 59.3433 45.3376 59.3312 45.2872C59.3042 45.1748 59.2641 44.9119 59.2641 44.4423H53.2641ZM54.6775 48.9964C55.9744 50.3769 57.82 50.6023 59.1241 50.6023V44.6023C58.9493 44.6023 58.8174 44.5934 58.7227 44.5821C58.6272 44.5708 58.5835 44.5586 58.58 44.5576C58.5669 44.5538 58.7962 44.6174 59.0506 44.8883L54.6775 48.9964ZM59.1241 39.2623C60.4123 39.2623 62.3052 39.0489 63.6039 37.6203L59.1642 33.5843C59.2985 33.4366 59.4311 33.3426 59.5278 33.2873C59.5752 33.2601 59.6133 33.2426 59.6386 33.2322C59.6637 33.2218 59.6778 33.2177 59.6781 33.2176C59.6784 33.2175 59.6673 33.2208 59.6429 33.2255C59.6185 33.2303 59.5831 33.2362 59.5354 33.2418C59.4386 33.2533 59.3035 33.2623 59.1241 33.2623V39.2623ZM63.5706 37.6564C64.8333 36.3122 65.0041 34.4201 65.0041 33.1023H59.0041C59.0041 33.3267 58.9945 33.5073 58.9803 33.6491C58.966 33.7921 58.9483 33.8806 58.9373 33.9252C58.9259 33.9709 58.9266 33.9499 58.9581 33.8853C58.9904 33.8189 59.0622 33.6923 59.1975 33.5483L63.5706 37.6564ZM65.0041 33.1023C65.0041 31.7845 64.8333 29.8925 63.5706 28.5483L59.1975 32.6564C59.0622 32.5123 58.9904 32.3857 58.9581 32.3194C58.9266 32.2547 58.9259 32.2337 58.9373 32.2794C58.9483 32.324 58.966 32.4126 58.9803 32.5555C58.9945 32.6974 59.0041 32.878 59.0041 33.1023H65.0041ZM63.6039 28.5843C62.3052 27.1558 60.4123 26.9423 59.1241 26.9423V32.9423C59.3035 32.9423 59.4386 32.9514 59.5354 32.9628C59.5831 32.9684 59.6185 32.9743 59.6429 32.9791C59.6673 32.9839 59.6784 32.9871 59.6781 32.987C59.6778 32.9869 59.6637 32.9828 59.6386 32.9724C59.6133 32.962 59.5752 32.9445 59.5278 32.9174C59.4311 32.8621 59.2985 32.7681 59.1642 32.6203L63.6039 28.5843ZM59.1241 26.9423C57.82 26.9423 55.9744 27.1678 54.6775 28.5483L59.0506 32.6564C58.7962 32.9272 58.5669 32.9909 58.58 32.987C58.5835 32.986 58.6272 32.9739 58.7227 32.9625C58.8174 32.9512 58.9493 32.9423 59.1241 32.9423V26.9423ZM54.6442 28.5843C53.4249 29.9256 53.2641 31.7981 53.2641 33.1023H59.2641C59.2641 32.6328 59.3042 32.3699 59.3312 32.2574C59.3433 32.2071 59.3442 32.2237 59.3154 32.2848C59.286 32.3472 59.2172 32.4737 59.0839 32.6203L54.6442 28.5843ZM53.2641 33.1023C53.2641 34.4066 53.4249 36.2791 54.6442 37.6203L59.0839 33.5843C59.2172 33.7309 59.286 33.8574 59.3154 33.9198C59.3442 33.981 59.3433 33.9976 59.3312 33.9472C59.3042 33.8348 59.2641 33.5719 59.2641 33.1023H53.2641ZM54.6775 37.6564C55.9744 39.0369 57.82 39.2623 59.1241 39.2623V33.2623C58.9493 33.2623 58.8174 33.2534 58.7227 33.2421C58.6272 33.2308 58.5835 33.2186 58.58 33.2176C58.5669 33.2138 58.7962 33.2774 59.0506 33.5483L54.6775 37.6564ZM77.5603 51.7623L79.7449 49.7062L79.7138 49.6731L79.6816 49.641L77.5603 51.7623ZM73.5603 47.7623L75.6816 45.641L75.6495 45.6089L75.6164 45.5777L73.5603 47.7623ZM83.2203 47.1023V50.1023H86.2203V47.1023H83.2203ZM78.3603 49.1023C78.5613 49.1023 78.8189 49.1395 79.0937 49.2563C79.3704 49.3739 79.5884 49.5399 79.7449 49.7062L75.3757 53.8184C76.1737 54.6663 77.2393 55.1023 78.3603 55.1023V49.1023ZM79.6816 49.641L75.6816 45.641L71.439 49.8836L75.439 53.8836L79.6816 49.641ZM75.6164 45.5777C75.7827 45.7343 75.9487 45.9523 76.0663 46.2289C76.1831 46.5037 76.2203 46.7614 76.2203 46.9623H70.2203C70.2203 48.0833 70.6564 49.1489 71.5042 49.9469L75.6164 45.5777ZM76.2203 46.9623V30.6023H70.2203V46.9623H76.2203ZM76.2203 30.6023C76.2203 30.8981 76.1443 31.6709 75.4666 32.3486C74.7889 33.0264 74.0161 33.1023 73.7203 33.1023V27.1023C73.0912 27.1023 72.0684 27.2616 71.224 28.106C70.3796 28.9504 70.2203 29.9732 70.2203 30.6023H76.2203ZM73.7203 33.1023H79.0603V27.1023H73.7203V33.1023ZM79.0603 33.1023C78.7645 33.1023 77.9917 33.0264 77.314 32.3486C76.6363 31.6709 76.5603 30.8981 76.5603 30.6023H82.5603C82.5603 29.9732 82.401 28.9504 81.5566 28.106C80.7123 27.2616 79.6894 27.1023 79.0603 27.1023V33.1023ZM76.5603 30.6023V46.1623H82.5603V30.6023H76.5603ZM76.5603 46.1623C76.5603 46.9221 76.7462 48.046 77.6463 48.9657C78.5581 49.8974 79.6947 50.1023 80.4803 50.1023V44.1023C80.6526 44.1023 81.3292 44.1506 81.9343 44.7689C82.5278 45.3753 82.5603 46.0292 82.5603 46.1623H76.5603ZM80.4803 50.1023H83.2203V44.1023H80.4803V50.1023ZM86.2203 47.1023V30.6023H80.2203V47.1023H86.2203ZM86.2203 30.6023C86.2203 30.8981 86.1443 31.6709 85.4666 32.3486C84.7889 33.0264 84.0161 33.1023 83.7203 33.1023V27.1023C83.0912 27.1023 82.0684 27.2616 81.224 28.106C80.3796 28.9504 80.2203 29.9732 80.2203 30.6023H86.2203ZM83.7203 33.1023H89.0603V27.1023H83.7203V33.1023ZM89.0603 33.1023C88.7645 33.1023 87.9917 33.0264 87.314 32.3486C86.6363 31.6709 86.5603 30.8981 86.5603 30.6023H92.5603C92.5603 29.9732 92.401 28.9504 91.5566 28.106C90.7123 27.2616 89.6894 27.1023 89.0603 27.1023V33.1023ZM86.5603 30.6023V51.6023H92.5603V30.6023H86.5603ZM86.5603 51.6023C86.5603 51.3066 86.6363 50.5337 87.314 49.856C87.9917 49.1783 88.7645 49.1023 89.0603 49.1023V55.1023C89.6894 55.1023 90.7123 54.943 91.5566 54.0986C92.401 53.2543 92.5603 52.2314 92.5603 51.6023H86.5603ZM89.0603 49.1023H78.3603V55.1023H89.0603V49.1023ZM94.7359 49.1023C95.0317 49.1023 95.8046 49.1783 96.4823 49.856C97.16 50.5337 97.2359 51.3066 97.2359 51.6023H91.2359C91.2359 52.2314 91.3952 53.2543 92.2396 54.0986C93.084 54.943 94.1068 55.1023 94.7359 55.1023V49.1023ZM97.2359 51.6023V30.6023H91.2359V51.6023H97.2359ZM97.2359 30.6023C97.2359 30.8981 97.16 31.6709 96.4823 32.3486C95.8046 33.0264 95.0317 33.1023 94.7359 33.1023V27.1023C94.1068 27.1023 93.084 27.2616 92.2396 28.106C91.3952 28.9504 91.2359 29.9732 91.2359 30.6023H97.2359ZM94.7359 33.1023H100.056V27.1023H94.7359V33.1023ZM100.056 33.1023C99.7602 33.1023 98.9873 33.0264 98.3096 32.3486C97.6319 31.6709 97.5559 30.8981 97.5559 30.6023H103.556C103.556 29.9732 103.397 28.9504 102.552 28.106C101.708 27.2616 100.685 27.1023 100.056 27.1023V33.1023ZM97.5559 30.6023V51.6023H103.556V30.6023H97.5559ZM97.5559 51.6023C97.5559 51.3066 97.6319 50.5337 98.3096 49.856C98.9873 49.1783 99.7602 49.1023 100.056 49.1023V55.1023C100.685 55.1023 101.708 54.943 102.552 54.0986C103.397 53.2543 103.556 52.2314 103.556 51.6023H97.5559ZM100.056 49.1023H94.7359V55.1023H100.056V49.1023ZM94.6359 25.4423C94.965 25.4423 95.7629 25.5266 96.4573 26.221C97.1516 26.9154 97.2359 27.7132 97.2359 28.0423H91.2359C91.2359 28.6381 91.3869 29.6359 92.2146 30.4636C93.0423 31.2914 94.0402 31.4423 94.6359 31.4423V25.4423ZM97.2359 28.0423V25.5023H91.2359V28.0423H97.2359ZM97.2359 25.5023C97.2359 25.8314 97.1516 26.6293 96.4573 27.3236C95.7629 28.018 94.965 28.1023 94.6359 28.1023V22.1023C94.0402 22.1023 93.0423 22.2533 92.2146 23.081C91.3869 23.9087 91.2359 24.9066 91.2359 25.5023H97.2359ZM94.6359 28.1023H100.196V22.1023H94.6359V28.1023ZM100.196 28.1023C99.7671 28.1023 98.9196 27.9687 98.2361 27.2092C97.6066 26.5098 97.5559 25.758 97.5559 25.5023H103.556C103.556 24.98 103.445 24.0281 102.696 23.1954C101.892 22.3026 100.865 22.1023 100.196 22.1023V28.1023ZM97.5559 25.5023V28.0423H103.556V25.5023H97.5559ZM97.5559 28.0423C97.5559 27.7867 97.6066 27.0348 98.2361 26.3354C98.9196 25.576 99.7671 25.4423 100.196 25.4423V31.4423C100.865 31.4423 101.892 31.242 102.696 30.3492C103.445 29.5165 103.556 28.5646 103.556 28.0423H97.5559ZM100.196 25.4423H94.6359V31.4423H100.196V25.4423ZM105.473 49.1023C105.768 49.1023 106.541 49.1783 107.219 49.856C107.897 50.5337 107.973 51.3066 107.973 51.6023H101.973C101.973 52.2314 102.132 53.2543 102.976 54.0986C103.821 54.943 104.843 55.1023 105.473 55.1023V49.1023ZM107.973 51.6023V25.9423H101.973V51.6023H107.973ZM107.973 25.9423C107.973 26.2381 107.897 27.0109 107.219 27.6886C106.541 28.3664 105.768 28.4423 105.473 28.4423V22.4423C104.843 22.4423 103.821 22.6016 102.976 23.446C102.132 24.2904 101.973 25.3132 101.973 25.9423H107.973ZM105.473 28.4423H110.813V22.4423H105.473V28.4423ZM110.813 28.4423C110.517 28.4423 109.744 28.3664 109.066 27.6886C108.388 27.0109 108.313 26.2381 108.313 25.9423H114.313C114.313 25.3132 114.153 24.2904 113.309 23.446C112.464 22.6016 111.442 22.4423 110.813 22.4423V28.4423ZM108.313 25.9423V51.6023H114.313V25.9423H108.313ZM108.313 51.6023C108.313 51.3066 108.388 50.5337 109.066 49.856C109.744 49.1783 110.517 49.1023 110.813 49.1023V55.1023C111.442 55.1023 112.464 54.943 113.309 54.0986C114.153 53.2543 114.313 52.2314 114.313 51.6023H108.313ZM110.813 49.1023H105.473V55.1023H110.813V49.1023ZM119.92 51.7623L122.042 49.641L122.042 49.641L119.92 51.7623ZM115.92 47.7623L118.042 45.641L118.009 45.6089L117.976 45.5777L115.92 47.7623ZM115.92 34.4423L117.976 36.6269L118.009 36.5958L118.042 36.5636L115.92 34.4423ZM119.92 30.4423L117.799 28.321L117.799 28.321L119.92 30.4423ZM124.58 30.4423L122.396 32.4984L122.427 32.5315L122.459 32.5636L124.58 30.4423ZM125.58 31.4423L123.459 33.5636L128.58 38.685V31.4423H125.58ZM126.86 52.0023L124.94 54.307L125.026 54.3786L125.117 54.4435L126.86 52.0023ZM126.58 51.7623L124.459 53.8836L124.53 53.9543L124.605 54.0201L126.58 51.7623ZM125.58 50.7623L127.702 48.641L125.58 46.5197L123.459 48.641L125.58 50.7623ZM124.58 51.7623L122.459 49.641L122.427 49.6731L122.396 49.7062L124.58 51.7623ZM125.34 47.1823L123.136 45.1475L123.136 45.1475L125.34 47.1823ZM125.58 34.7623H128.58V31.7623H125.58V34.7623ZM122.16 35.0223L124.365 37.0572L124.365 37.0572L122.16 35.0223ZM122.16 47.1823L124.365 45.1475L124.365 45.1475L122.16 47.1823ZM120.72 49.1023C120.946 49.1023 121.205 49.1462 121.464 49.2563C121.72 49.3654 121.912 49.5113 122.042 49.641L117.799 53.8836C118.56 54.6445 119.579 55.1023 120.72 55.1023V49.1023ZM122.042 49.641L118.042 45.641L113.799 49.8836L117.799 53.8836L122.042 49.641ZM117.976 45.5777C118.143 45.7343 118.309 45.9523 118.426 46.2289C118.543 46.5037 118.58 46.7614 118.58 46.9623H112.58C112.58 48.0833 113.016 49.1489 113.864 49.9469L117.976 45.5777ZM118.58 46.9623V35.2423H112.58V46.9623H118.58ZM118.58 35.2423C118.58 35.4433 118.543 35.701 118.426 35.9757C118.309 36.2524 118.143 36.4704 117.976 36.6269L113.864 32.2577C113.016 33.0557 112.58 34.1214 112.58 35.2423H118.58ZM118.042 36.5636L122.042 32.5636L117.799 28.321L113.799 32.321L118.042 36.5636ZM122.042 32.5636C121.912 32.6934 121.72 32.8393 121.464 32.9483C121.205 33.0585 120.946 33.1023 120.72 33.1023V27.1023C119.579 27.1023 118.56 27.5601 117.799 28.321L122.042 32.5636ZM120.72 33.1023H123.78V27.1023H120.72V33.1023ZM123.78 33.1023C123.579 33.1023 123.322 33.0651 123.047 32.9483C122.77 32.8307 122.552 32.6647 122.396 32.4984L126.765 28.3862C125.967 27.5384 124.901 27.1023 123.78 27.1023V33.1023ZM122.459 32.5636L123.459 33.5636L127.702 29.321L126.702 28.321L122.459 32.5636ZM128.58 31.4423V25.9423H122.58V31.4423H128.58ZM128.58 25.9423C128.58 26.2381 128.504 27.0109 127.827 27.6886C127.149 28.3664 126.376 28.4423 126.08 28.4423V22.4423C125.451 22.4423 124.428 22.6016 123.584 23.446C122.74 24.2904 122.58 25.3132 122.58 25.9423H128.58ZM126.08 28.4423H131.42V22.4423H126.08V28.4423ZM131.42 28.4423C131.125 28.4423 130.352 28.3664 129.674 27.6886C128.996 27.0109 128.92 26.2381 128.92 25.9423H134.92C134.92 25.3132 134.761 24.2904 133.917 23.446C133.072 22.6016 132.049 22.4423 131.42 22.4423V28.4423ZM128.92 25.9423V51.6023H134.92V25.9423H128.92ZM128.92 51.6023C128.92 51.3066 128.996 50.5337 129.674 49.856C130.352 49.1783 131.125 49.1023 131.42 49.1023V55.1023C132.049 55.1023 133.072 54.943 133.917 54.0986C134.761 53.2543 134.92 52.2314 134.92 51.6023H128.92ZM131.42 49.1023H127.26V55.1023H131.42V49.1023ZM127.26 49.1023C127.411 49.1023 127.989 49.1216 128.604 49.5611L125.117 54.4435C125.919 55.0164 126.763 55.1023 127.26 55.1023V49.1023ZM128.781 49.6977C128.725 49.6508 128.65 49.5873 128.556 49.5046L124.605 54.0201C124.724 54.124 124.836 54.2205 124.94 54.307L128.781 49.6977ZM128.702 49.641L127.702 48.641L123.459 52.8836L124.459 53.8836L128.702 49.641ZM123.459 48.641L122.459 49.641L126.702 53.8836L127.702 52.8836L123.459 48.641ZM122.396 49.7062C122.552 49.5399 122.77 49.3739 123.047 49.2563C123.322 49.1395 123.579 49.1023 123.78 49.1023V55.1023C124.901 55.1023 125.967 54.6663 126.765 53.8184L122.396 49.7062ZM123.78 49.1023H120.72V55.1023H123.78V49.1023ZM123.06 50.4423H124.46V44.4423H123.06V50.4423ZM124.46 50.4423C125.1 50.4423 126.499 50.3495 127.545 49.2172L123.136 45.1475C123.517 44.7348 123.929 44.5658 124.15 44.5003C124.364 44.437 124.49 44.4423 124.46 44.4423V50.4423ZM127.545 49.2172C128.506 48.1753 128.58 46.8771 128.58 46.2623H122.58C122.58 46.3177 122.573 46.2337 122.617 46.0651C122.661 45.8986 122.787 45.5257 123.136 45.1475L127.545 49.2172ZM128.58 46.2623V34.7623H122.58V46.2623H128.58ZM125.58 31.7623H123.06V37.7623H125.58V31.7623ZM123.06 31.7623C122.441 31.7623 121.014 31.8416 119.956 32.9875L124.365 37.0572C123.972 37.4831 123.548 37.6487 123.338 37.7095C123.132 37.769 123.017 37.7623 123.06 37.7623V31.7623ZM119.956 32.9875C118.994 34.0294 118.92 35.3275 118.92 35.9423H124.92C124.92 35.8869 124.927 35.9709 124.883 36.1396C124.84 36.3061 124.714 36.6789 124.365 37.0572L119.956 32.9875ZM118.92 35.9423V46.2623H124.92V35.9423H118.92ZM118.92 46.2623C118.92 46.8771 118.994 48.1753 119.956 49.2172L124.365 45.1475C124.714 45.5257 124.84 45.8986 124.883 46.0651C124.927 46.2337 124.92 46.3177 124.92 46.2623H118.92ZM119.956 49.2172C121.014 50.3631 122.441 50.4423 123.06 50.4423V44.4423C123.017 44.4423 123.132 44.4357 123.338 44.4952C123.548 44.5559 123.972 44.7216 124.365 45.1475L119.956 49.2172ZM145.1 52.0423L144.31 54.9366L144.341 54.945L144.372 54.9528L145.1 52.0423ZM144.68 51.9423L143.96 54.8547L144.025 54.8708L144.091 54.8841L144.68 51.9423ZM141.12 51.0623L140.171 53.9084L140.284 53.9461L140.4 53.9747L141.12 51.0623ZM137.04 49.7023L136.091 52.5484L136.091 52.5484L137.04 49.7023ZM136.78 34.4423L138.836 36.6269L138.869 36.5958L138.901 36.5636L136.78 34.4423ZM140.78 30.4423L138.658 28.321L138.658 28.321L140.78 30.4423ZM148.78 30.4423L150.901 28.321L148.78 30.4423ZM152.78 34.4423L150.658 36.5636L150.691 36.5958L150.724 36.6269L152.78 34.4423ZM153.12 43.4423V46.4423H156.12V43.4423H153.12ZM142.38 43.4423V40.4423H139.533L139.384 43.2846L142.38 43.4423ZM142.24 46.1023L139.244 45.9446L139.124 48.231L141.297 48.9504L142.24 46.1023ZM145.08 47.0423L144.137 49.8904L144.494 50.0084L144.868 50.0349L145.08 47.0423ZM150.18 47.4023L150.701 44.448L150.547 44.4208L150.391 44.4098L150.18 47.4023ZM146.68 39.5623L144.349 37.6729L144.334 37.6922L144.319 37.7117L146.68 39.5623ZM146.68 35.1823L144.319 37.033L144.334 37.0525L144.349 37.0717L146.68 35.1823ZM143.18 35.1823L140.819 33.3317L140.803 33.3517L140.787 33.372L143.18 35.1823ZM143.18 39.5623L140.787 41.3727L140.803 41.3929L140.819 41.413L143.18 39.5623ZM145.54 49.1023C145.701 49.1023 145.803 49.1258 145.827 49.1319L144.372 54.9528C144.716 55.0388 145.111 55.1023 145.54 55.1023V49.1023ZM145.889 49.148C145.684 49.092 145.476 49.0422 145.268 49.0006L144.091 54.8841C144.15 54.8958 144.222 54.9127 144.31 54.9366L145.889 49.148ZM145.4 49.03L141.84 48.15L140.4 53.9747L143.96 54.8547L145.4 49.03ZM142.068 48.2163L137.988 46.8563L136.091 52.5484L140.171 53.9084L142.068 48.2163ZM137.988 46.8563C138.238 46.9396 138.501 47.0792 138.742 47.2878C138.981 47.495 139.146 47.7255 139.254 47.9341C139.454 48.3198 139.44 48.5913 139.44 48.5423H133.44C133.44 49.1334 133.526 49.9182 133.925 50.6906C134.371 51.5529 135.123 52.2258 136.091 52.5484L137.988 46.8563ZM139.44 48.5423V35.2423H133.44V48.5423H139.44ZM139.44 35.2423C139.44 35.4433 139.402 35.701 139.286 35.9757C139.168 36.2524 139.002 36.4704 138.836 36.6269L134.724 32.2577C133.876 33.0557 133.44 34.1214 133.44 35.2423H139.44ZM138.901 36.5636L142.901 32.5636L138.658 28.321L134.658 32.321L138.901 36.5636ZM142.901 32.5636C142.771 32.6934 142.58 32.8393 142.323 32.9483C142.064 33.0585 141.806 33.1023 141.58 33.1023V27.1023C140.438 27.1023 139.419 27.5601 138.658 28.321L142.901 32.5636ZM141.58 33.1023H147.98V27.1023H141.58V33.1023ZM147.98 33.1023C147.754 33.1023 147.495 33.0585 147.236 32.9483C146.98 32.8393 146.788 32.6934 146.658 32.5636L150.901 28.321C150.14 27.5601 149.121 27.1023 147.98 27.1023V33.1023ZM146.658 32.5636L150.658 36.5636L154.901 32.321L150.901 28.321L146.658 32.5636ZM150.724 36.6269C150.557 36.4704 150.391 36.2524 150.274 35.9757C150.157 35.701 150.12 35.4433 150.12 35.2423H156.12C156.12 34.1214 155.684 33.0557 154.836 32.2577L150.724 36.6269ZM150.12 35.2423V43.4423H156.12V35.2423H150.12ZM153.12 40.4423H142.38V46.4423H153.12V40.4423ZM139.384 43.2846L139.244 45.9446L145.236 46.26L145.376 43.6L139.384 43.2846ZM141.297 48.9504L144.137 49.8904L146.022 44.1943L143.182 43.2543L141.297 48.9504ZM144.868 50.0349L149.968 50.3949L150.391 44.4098L145.291 44.0498L144.868 50.0349ZM149.658 50.3567C149.181 50.2724 148.514 49.9957 148.022 49.3305C147.572 48.7212 147.52 48.1216 147.52 47.8623H153.52C153.52 47.3364 153.411 46.5268 152.847 45.7642C152.242 44.9456 151.405 44.5723 150.701 44.448L149.658 50.3567ZM147.52 47.8623V51.6023H153.52V47.8623H147.52ZM147.52 51.6023C147.52 51.3066 147.596 50.5337 148.273 49.856C148.951 49.1783 149.724 49.1023 150.02 49.1023V55.1023C150.649 55.1023 151.672 54.943 152.516 54.0986C153.36 53.2543 153.52 52.2314 153.52 51.6023H147.52ZM150.02 49.1023H145.54V55.1023H150.02V49.1023ZM144.74 43.3023H145.12V37.3023H144.74V43.3023ZM145.12 43.3023C146.65 43.3023 148.058 42.6668 149.041 41.413L144.319 37.7117C144.386 37.6254 144.517 37.5002 144.714 37.4068C144.907 37.3153 145.062 37.3023 145.12 37.3023V43.3023ZM149.01 41.4517C149.966 40.2732 150.28 38.8671 150.28 37.5623H144.28C144.28 37.7486 144.257 37.8274 144.256 37.8303C144.256 37.8304 144.262 37.8122 144.278 37.7816C144.294 37.7503 144.317 37.7125 144.349 37.6729L149.01 41.4517ZM150.28 37.5623V37.1623H144.28V37.5623H150.28ZM150.28 37.1623C150.28 35.8575 149.959 34.4636 149.01 33.2929L144.349 37.0717C144.319 37.0347 144.297 36.9987 144.281 36.9681C144.265 36.938 144.259 36.9192 144.259 36.9173C144.258 36.9158 144.28 36.9872 144.28 37.1623H150.28ZM149.041 33.3317C148.058 32.0779 146.65 31.4423 145.12 31.4423V37.4423C145.062 37.4423 144.907 37.4294 144.714 37.3378C144.517 37.2445 144.386 37.1192 144.319 37.033L149.041 33.3317ZM145.12 31.4423H144.72V37.4423H145.12V31.4423ZM144.72 31.4423C143.181 31.4423 141.788 32.0952 140.819 33.3317L145.541 37.033C145.479 37.1115 145.352 37.236 145.154 37.3313C144.958 37.4257 144.793 37.4423 144.72 37.4423V31.4423ZM140.787 33.372C139.906 34.5372 139.62 35.9004 139.62 37.1623H145.62C145.62 36.9705 145.642 36.8803 145.646 36.8638C145.649 36.854 145.634 36.911 145.572 36.9927L140.787 33.372ZM139.62 37.1623V37.5623H145.62V37.1623H139.62ZM139.62 37.5623C139.62 38.8249 139.9 40.2 140.787 41.3727L145.572 37.752C145.638 37.8387 145.653 37.8977 145.649 37.8834C145.643 37.8624 145.62 37.7649 145.62 37.5623H139.62ZM140.819 41.413C141.801 42.6668 143.21 43.3023 144.74 43.3023V37.3023C144.797 37.3023 144.952 37.3153 145.145 37.4068C145.342 37.5002 145.473 37.6254 145.541 37.7117L140.819 41.413ZM161.483 30.4423L159.167 32.3494L159.191 32.379L159.216 32.4079L161.483 30.4423ZM163.443 32.7023L161.176 34.6679L163.372 37.1999L165.647 34.7379L163.443 32.7023ZM165.623 30.3423L167.827 32.378L167.834 32.3695L165.623 30.3423ZM168.803 35.3423L171.588 36.4565L171.621 36.3746L171.649 36.291L168.803 35.3423ZM168.583 35.5623L166.919 33.0662L166.859 33.1059L166.802 33.1484L168.583 35.5623ZM163.623 39.2223L161.842 36.8084L160.623 37.7077V39.2223H163.623ZM157.783 49.1023C158.079 49.1023 158.851 49.1783 159.529 49.856C160.207 50.5337 160.283 51.3066 160.283 51.6023H154.283C154.283 52.2314 154.442 53.2543 155.286 54.0986C156.131 54.943 157.154 55.1023 157.783 55.1023V49.1023ZM160.283 51.6023V30.6023H154.283V51.6023H160.283ZM160.283 30.6023C160.283 30.8981 160.207 31.6709 159.529 32.3486C158.851 33.0264 158.079 33.1023 157.783 33.1023V27.1023C157.154 27.1023 156.131 27.2616 155.286 28.106C154.442 28.9504 154.283 29.9732 154.283 30.6023H160.283ZM157.783 33.1023H160.823V27.1023H157.783V33.1023ZM160.823 33.1023C160.483 33.1023 160.129 33.0218 159.804 32.8542C159.491 32.6928 159.285 32.493 159.167 32.3494L163.799 28.5352C163.143 27.7396 162.121 27.1023 160.823 27.1023V33.1023ZM159.216 32.4079L161.176 34.6679L165.709 30.7368L163.749 28.4768L159.216 32.4079ZM165.647 34.7379L167.827 32.3779L163.419 28.3067L161.239 30.6667L165.647 34.7379ZM167.834 32.3695C167.64 32.5813 167.379 32.7808 167.055 32.9198C166.733 33.0574 166.429 33.1023 166.183 33.1023V27.1023C165.157 27.1023 164.154 27.5049 163.411 28.3151L167.834 32.3695ZM166.183 33.1023H168.343V27.1023H166.183V33.1023ZM168.343 33.1023C168.047 33.1023 167.274 33.0264 166.596 32.3486C165.919 31.6709 165.843 30.8981 165.843 30.6023H171.843C171.843 29.9732 171.684 28.9504 170.839 28.106C169.995 27.2616 168.972 27.1023 168.343 27.1023V33.1023ZM165.843 30.6023V34.9023H171.843V30.6023H165.843ZM165.843 34.9023C165.843 34.9546 165.841 34.9478 165.845 34.9007C165.847 34.8755 165.853 34.822 165.866 34.7485C165.878 34.6802 165.904 34.5531 165.957 34.3936L171.649 36.291C171.848 35.6938 171.843 35.0923 171.843 34.9023H165.843ZM166.017 34.2281C166.206 33.7557 166.473 33.4592 166.606 33.326C166.752 33.1808 166.873 33.0967 166.919 33.0662L170.247 38.0585C170.451 37.9227 171.202 37.4221 171.588 36.4565L166.017 34.2281ZM166.802 33.1484L161.842 36.8084L165.404 41.6363L170.364 37.9763L166.802 33.1484ZM160.623 39.2223V51.6023H166.623V39.2223H160.623ZM160.623 51.6023C160.623 51.3066 160.699 50.5337 161.376 49.856C162.054 49.1783 162.827 49.1023 163.123 49.1023V55.1023C163.752 55.1023 164.775 54.943 165.619 54.0986C166.464 53.2543 166.623 52.2314 166.623 51.6023H160.623ZM163.123 49.1023H157.783V55.1023H163.123V49.1023Z" fill="#0D0D0D" mask="url(#path-2-outside-1_481_623)"/>
</svg>
