<svg width="40" height="40" viewBox="0 0 40 40" fill="none" xmlns="http://www.w3.org/2000/svg">
<path d="M1.70222 39.7127C1.30861 40.1001 0.675468 40.0951 0.288048 39.7015C-0.099369 39.3079 -0.0943565 38.6747 0.299248 38.2873L1.70222 39.7127ZM40.0007 15.6154C40.0007 24.2395 33.0095 31.2308 24.3853 31.2308V29.2308C31.9049 29.2308 38.0007 23.1349 38.0007 15.6154H40.0007ZM24.3853 31.2308C15.7612 31.2308 8.7699 24.2395 8.7699 15.6154H10.7699C10.7699 23.1349 16.8657 29.2308 24.3853 29.2308V31.2308ZM8.7699 15.6154C8.7699 6.99124 15.7612 0 24.3853 0V2C16.8657 2 10.7699 8.09581 10.7699 15.6154H8.7699ZM24.3853 0C33.0095 0 40.0007 6.99124 40.0007 15.6154H38.0007C38.0007 8.09581 31.9049 2 24.3853 2V0ZM14.856 26.7656L1.70222 39.7127L0.299248 38.2873L13.4531 25.3402L14.856 26.7656Z" fill="#0D0D0D"/>
</svg>
