<svg width="30" height="30" viewBox="0 0 30 30" fill="none" xmlns="http://www.w3.org/2000/svg">
<path fill-rule="evenodd" clip-rule="evenodd" d="M7 0C3.13401 0 0 3.13401 0 7V23C0 26.866 3.13401 30 7 30H23C26.866 30 30 26.866 30 23V7C30 3.13401 26.866 0 23 0H7ZM16.5 16.8724C16.6104 16.9142 16.7254 16.9598 16.845 17.0096C17.6864 17.3602 18.617 17.86 19.4804 18.4356C20.35 19.0153 21.0997 19.6375 21.6133 20.2153C22.1759 20.8483 22.25 21.1958 22.25 21.25H25.25C25.25 20.0542 24.5428 18.9955 23.8555 18.2222C23.1191 17.3937 22.15 16.6097 21.1446 15.9394C20.8456 15.7401 20.5388 15.5478 20.2283 15.3647C21.9855 14.2722 23.3205 12.2961 23.9709 9.04417L21.0291 8.45583C20.4638 11.2826 19.4071 12.3982 18.4903 12.9075C17.8806 13.2462 17.2148 13.3917 16.5 13.454V8.75H13.5V18.3058C12.7584 18.1069 11.9442 17.7232 11.1653 17.0151C9.79426 15.7687 8.3352 13.3382 7.73842 8.56395L4.76158 8.93605C5.4148 14.1618 7.08074 17.3563 9.14724 19.2349C11.222 21.121 13.501 21.5 15 21.5H16.5V16.8724Z" fill="#009DFF"/>
</svg>
