<svg width="30" height="30" viewBox="0 0 30 30" fill="none" xmlns="http://www.w3.org/2000/svg">
<path fill-rule="evenodd" clip-rule="evenodd" d="M15.4412 20.2941C18.6087 20.2941 21.1765 17.7263 21.1765 14.5588C21.1765 11.3913 18.6087 8.82353 15.4412 8.82353C12.2737 8.82353 9.70588 11.3913 9.70588 14.5588C9.70588 15.5352 9.94988 16.4547 10.3802 17.2595L9.70588 20.2941L13.3268 19.8918C13.9811 20.1514 14.6945 20.2941 15.4412 20.2941ZM12.1757 12.4433C12.2816 12.1259 12.5786 11.9118 12.9133 11.9118C13.1195 11.9118 13.3172 11.9937 13.463 12.1395L13.6765 12.3529C13.959 12.6354 14.1176 13.0185 14.1176 13.418V13.4281C14.1176 13.5926 14.0911 13.756 14.0391 13.9121L13.6765 15L13.8386 15.3243C14.0197 15.6865 14.3135 15.9803 14.6757 16.1614L15.1736 16.4103C15.5969 16.622 16.1081 16.539 16.4427 16.2044L16.4528 16.1943C16.6525 15.9946 16.9234 15.8824 17.2059 15.8824C17.4884 15.8824 17.7593 15.9946 17.959 16.1943L18.3017 16.537C18.4475 16.6828 18.5294 16.8805 18.5294 17.0867C18.5294 17.4214 18.3153 17.7184 17.9978 17.8243L17.6244 17.9487C17.3527 18.0393 17.059 18.0393 16.7874 17.9487L16.115 17.7246C15.9601 17.673 15.8091 17.6104 15.6631 17.5374L14.8108 17.1113C14.3517 16.8817 13.9326 16.5797 13.5697 16.2167C13.3473 15.9944 13.1474 15.7506 12.973 15.4889L12.3529 14.5588L12.0513 13.6538C11.9607 13.3822 11.9607 13.0884 12.0513 12.8168L12.1757 12.4433Z" fill="#00FF87"/>
<path fill-rule="evenodd" clip-rule="evenodd" d="M15 30C23.2843 30 30 23.2843 30 15C30 6.71573 23.2843 0 15 0C6.71573 0 0 6.71573 0 15C0 23.2843 6.71573 30 15 30ZM15.4412 22.0588C19.5833 22.0588 22.9412 18.701 22.9412 14.5588C22.9412 10.4167 19.5833 7.05882 15.4412 7.05882C11.299 7.05882 7.94118 10.4167 7.94118 14.5588C7.94118 15.8357 8.26026 17.038 8.82303 18.0904L7.94118 22.0588L11.9096 21.177C12.962 21.7397 14.1643 22.0588 15.4412 22.0588Z" fill="#00FF87"/>
</svg>
